<svg xmlns="http://www.w3.org/2000/svg" xmlns:xlink="http://www.w3.org/1999/xlink" viewBox="0 0 51.333 72.333" fill="#fff" fill-rule="evenodd" stroke="#000" stroke-linecap="round" stroke-linejoin="round"><use xlink:href="#AY" x="4.167" y="4.167"/><symbol id="AY" overflow="visible"><g stroke="none" fill-rule="nonzero"><path d="M10.667 64a10.67 10.67 0 0 0 10.667-10.667V42.667H10.667A10.67 10.67 0 0 0 0 53.334 10.67 10.67 0 0 0 10.667 64z" fill="#0acf83"/><path d="M0 32a10.67 10.67 0 0 1 10.667-10.667h10.667v21.333H10.667c-2.829 0-5.542-1.124-7.542-3.124S0 34.829 0 32z" fill="#a259ff"/><path d="M0 10.667A10.67 10.67 0 0 1 10.658 0h10.667v21.333H10.667c-2.829 0-5.542-1.124-7.542-3.124S0 13.496 0 10.667z" fill="#f24e1e"/><path d="M21.333 0H32a10.67 10.67 0 0 1 10.667 10.667A10.67 10.67 0 0 1 32 21.333H21.333z" fill="#ff7262"/><path d="M42.666 32A10.67 10.67 0 0 1 32 42.666 10.67 10.67 0 0 1 21.333 32 10.67 10.67 0 0 1 32 21.333 10.67 10.67 0 0 1 42.666 32z" fill="#1abcfe"/></g></symbol></svg>