<svg width="132" height="84" viewBox="0 0 132 84" fill="none" xmlns="http://www.w3.org/2000/svg">
<g clip-path="url(#clip0)">
<path d="M65.2548 83.7576C64.8081 83.7576 64.391 83.634 64.0036 83.4176L60.0413 80.9752C59.4453 80.6349 59.7433 80.5113 59.9222 80.4495C60.7264 80.1713 60.8754 80.1092 61.7096 79.6148C61.7991 79.5528 61.9184 79.5838 62.0076 79.6456L65.0465 81.5316C65.1656 81.5934 65.3146 81.5934 65.4038 81.5316L77.2913 74.3895C77.4104 74.3277 77.4702 74.2038 77.4702 74.0494V59.7962C77.4702 59.6413 77.4104 59.518 77.2913 59.4559L65.4038 52.3448C65.2847 52.2827 65.1357 52.2827 65.0465 52.3448L53.1591 59.4559C53.04 59.5177 52.9802 59.6723 52.9802 59.7959V74.0492C52.9802 74.173 53.04 74.3274 53.1591 74.3895L56.4066 76.3372C58.1644 77.2647 59.2666 76.1826 59.2666 75.1005V61.0326C59.2666 60.8473 59.4156 60.6616 59.6242 60.6616H61.1435C61.3224 60.6616 61.5011 60.8162 61.5011 61.0326V75.1005C61.5011 77.5429 60.2199 78.9653 57.9855 78.9653C57.3003 78.9653 56.7641 78.9653 55.2445 78.1922L52.1164 76.3372C51.3417 75.8736 50.8651 75.0077 50.8651 74.0802V59.827C50.8651 58.8995 51.3417 58.0335 52.1164 57.5699L64.0036 50.4278C64.7486 49.9949 65.7616 49.9949 66.5063 50.4278L78.3936 57.5699C79.1682 58.0335 79.6451 58.8995 79.6451 59.827V74.0802C79.6451 75.0077 79.1682 75.8736 78.3936 76.3372L66.5063 83.4794C66.1189 83.665 65.6722 83.7576 65.2551 83.7576H65.2548ZM68.9194 73.9566C63.7058 73.9566 62.6332 71.4832 62.6332 69.3808C62.6332 69.1951 62.7822 69.0097 62.9908 69.0097H64.54C64.7187 69.0097 64.8677 69.1333 64.8677 69.319C65.1061 70.9575 65.7913 71.7614 68.9493 71.7614C71.4518 71.7614 72.5247 71.1739 72.5247 69.7826C72.5247 68.9787 72.2265 68.3915 68.3237 67.9894C65.0762 67.6491 63.0503 66.9073 63.0503 64.2174C63.0503 61.7129 65.0764 60.2288 68.4727 60.2288C72.286 60.2288 74.1631 61.5894 74.4016 64.5572C74.4016 64.6503 74.3717 64.7428 74.3121 64.8357C74.2523 64.8975 74.1632 64.9593 74.0737 64.9593H72.5245C72.3755 64.9593 72.2265 64.8357 72.1968 64.681C71.8393 62.9807 70.9156 62.424 68.4727 62.424C65.7317 62.424 65.4038 63.4135 65.4038 64.1554C65.4038 65.0521 65.7913 65.3303 69.4855 65.8249C73.1501 66.3198 74.8782 67.0309 74.8782 69.6897C74.8483 72.4106 72.7033 73.9566 68.9194 73.9566Z" fill="#539E43"/>
<path d="M28.3715 28.0122C28.3715 27.4558 28.0735 26.9298 27.5969 26.6516L14.9647 19.1077C14.7559 18.9838 14.5177 18.922 14.2796 18.891H14.1602C13.922 18.891 13.6836 18.9838 13.475 19.1077L0.842861 26.6516C0.365971 26.9298 0.0682373 27.4555 0.0682373 28.0122L0.0981396 48.2944C0.0981396 48.5727 0.247135 48.8509 0.485323 48.9747C0.723768 49.1294 1.0215 49.1294 1.2303 48.9747L8.7381 44.5225C9.21473 44.2443 9.51272 43.7186 9.51272 43.1621V33.6702C9.51272 33.1137 9.81045 32.5881 10.2873 32.3098L13.475 30.3928C13.7135 30.2382 13.9816 30.1761 14.2497 30.1761C14.5177 30.1761 14.7858 30.2382 14.9946 30.3928L18.1823 32.3098C18.6592 32.5881 18.9569 33.1135 18.9569 33.6702V43.1621C18.9569 43.7186 19.2549 44.2443 19.7316 44.5225L27.2394 48.9747C27.4778 49.1294 27.7755 49.1294 28.014 48.9747C28.2524 48.8509 28.4014 48.5727 28.4014 48.2944L28.3715 28.0122ZM89.0894 0.0928949C88.8512 -0.030965 88.5532 -0.030965 88.3444 0.0928949C88.1062 0.247519 87.9572 0.494704 87.9572 0.77292V20.8701C87.9572 21.0554 87.868 21.2408 87.6892 21.3647C87.5105 21.4573 87.3316 21.4573 87.153 21.3647L83.9949 19.4787C83.7634 19.3419 83.5016 19.27 83.2351 19.27C82.9687 19.27 82.7069 19.3419 82.4753 19.4787L69.8432 27.0537C69.3665 27.3319 69.0685 27.8576 69.0685 28.414V43.5329C69.0685 44.0894 69.3665 44.6153 69.8432 44.8935L82.4753 52.4685C82.7069 52.6053 82.9687 52.6772 83.2351 52.6772C83.5016 52.6772 83.7634 52.6053 83.9949 52.4685L96.6271 44.8935C97.1037 44.6153 97.4017 44.0896 97.4017 43.5329V5.84368C97.4017 5.25622 97.1037 4.73082 96.6271 4.45233L89.0897 0.0928949H89.0894ZM87.9276 38.5553C87.9276 38.7099 87.868 38.8335 87.7487 38.8953L83.4288 41.4923C83.3685 41.5229 83.3023 41.5387 83.2351 41.5387C83.168 41.5387 83.1017 41.5229 83.0414 41.4923L78.7216 38.8953C78.6022 38.8335 78.5427 38.6789 78.5427 38.5553V33.3609C78.5427 33.2063 78.6022 33.0827 78.7216 33.0209L83.0414 30.4236C83.1017 30.393 83.168 30.3772 83.2351 30.3772C83.3023 30.3772 83.3685 30.393 83.4288 30.4236L87.7487 33.0209C87.868 33.0824 87.9276 33.2373 87.9276 33.3609V38.5553ZM131.127 33.2373C131.604 32.9591 131.872 32.4334 131.872 31.8767V28.1976C131.872 27.6411 131.574 27.1155 131.127 26.8373L118.584 19.2933C118.353 19.1566 118.091 19.0846 117.825 19.0846C117.558 19.0846 117.297 19.1566 117.065 19.2933L104.433 26.868C103.956 27.1462 103.658 27.6719 103.658 28.2286V43.3475C103.658 43.904 103.956 44.4296 104.433 44.7079L116.976 52.1282C117.452 52.4064 118.018 52.4064 118.465 52.1282L126.062 47.7383C126.301 47.6144 126.45 47.3362 126.45 47.058C126.45 46.7798 126.301 46.5016 126.062 46.3777L113.371 38.8027C113.132 38.6484 112.983 38.4009 112.983 38.1227V33.3922C112.983 33.114 113.132 32.8358 113.371 32.7119L117.333 30.3621C117.449 30.2863 117.583 30.2461 117.72 30.2461C117.858 30.2461 117.992 30.2863 118.108 30.3621L122.07 32.7119C122.309 32.8665 122.458 33.1137 122.458 33.3922V37.1024C122.458 37.3806 122.607 37.6588 122.845 37.7824C123.083 37.937 123.381 37.937 123.619 37.7824L131.127 33.2373Z" fill="#333333"/>
<path d="M117.631 32.5263C117.675 32.4961 117.727 32.48 117.78 32.48C117.833 32.48 117.885 32.4961 117.929 32.5263L120.342 33.9794C120.432 34.041 120.491 34.1338 120.491 34.2576V37.1639C120.491 37.2875 120.432 37.3804 120.342 37.4422L117.929 38.8953C117.885 38.9255 117.833 38.9416 117.78 38.9416C117.727 38.9416 117.675 38.9255 117.631 38.8953L115.218 37.4422C115.128 37.3804 115.069 37.2875 115.069 37.1639V34.2576C115.069 34.1338 115.128 34.041 115.218 33.9794L117.631 32.5263Z" fill="#539E43"/>
<mask id="mask0" maskUnits="userSpaceOnUse" x="34" y="19" width="29" height="34">
<path d="M49.4947 19.3552C49.2632 19.2184 49.0014 19.1465 48.735 19.1465C48.4686 19.1465 48.2068 19.2184 47.9753 19.3552L35.4326 26.8678C34.9557 27.146 34.6876 27.6717 34.6876 28.2281V43.2856C34.6876 43.842 34.9856 44.3677 35.4326 44.6459L47.9753 52.1591C48.2068 52.2958 48.4686 52.3677 48.735 52.3677C49.0014 52.3677 49.2632 52.2958 49.4947 52.1591L62.0376 44.6459C62.5143 44.3677 62.7826 43.842 62.7826 43.2856V28.2284C62.7826 27.672 62.4844 27.1463 62.0376 26.8681L49.4947 19.3552Z" fill="white"/>
</mask>
<g mask="url(#mask0)">
<path d="M49.4947 19.3552C49.2632 19.2184 49.0014 19.1465 48.735 19.1465C48.4686 19.1465 48.2068 19.2184 47.9753 19.3552L35.4326 26.8678C34.9557 27.146 34.6876 27.6717 34.6876 28.2281V43.2856C34.6876 43.842 34.9856 44.3677 35.4326 44.6459L47.9753 52.1591C48.2068 52.2958 48.4686 52.3677 48.735 52.3677C49.0014 52.3677 49.2632 52.2958 49.4947 52.1591L62.0376 44.6459C62.5143 44.3677 62.7826 43.842 62.7826 43.2856V28.2284C62.7826 27.672 62.4844 27.1463 62.0376 26.8681L49.4947 19.3552Z" fill="url(#paint0_linear)"/>
<path d="M62.0672 26.8681L49.4649 19.3552C49.3411 19.2903 49.2113 19.2385 49.0775 19.2006L34.9556 44.3064C35.0725 44.4546 35.2138 44.5802 35.3729 44.6775L47.9752 52.1907C48.3327 52.4071 48.7498 52.4689 49.137 52.345L62.3951 27.1776C62.3056 27.054 62.1863 26.9609 62.0672 26.8684V26.8681Z" fill="url(#paint1_linear)"/>
<path fill-rule="evenodd" clip-rule="evenodd" d="M62.0969 44.6461C62.4544 44.4297 62.7225 44.0586 62.8419 43.6568L49.0175 19.1695C48.6599 19.1077 48.2725 19.1385 47.9451 19.3549L35.432 26.8373L48.928 52.3757C49.1243 52.3424 49.3149 52.2799 49.4941 52.1903L62.0966 44.6464L62.0969 44.6461Z" fill="url(#paint2_linear)"/>
<path fill-rule="evenodd" clip-rule="evenodd" d="M62.097 44.646L49.5243 52.1592C49.3468 52.2532 49.1555 52.3158 48.9583 52.3446L49.1967 52.8085L63.1397 44.4299V44.2442L62.7822 43.6257C62.7226 44.0586 62.4545 44.4296 62.097 44.646Z" fill="url(#paint3_linear)"/>
<path fill-rule="evenodd" clip-rule="evenodd" d="M62.097 44.646L49.5243 52.1592C49.3468 52.2532 49.1555 52.3158 48.9583 52.3446L49.1967 52.8085L63.1397 44.4299V44.2442L62.7822 43.6257C62.7226 44.0586 62.4545 44.4296 62.097 44.646Z" fill="url(#paint4_linear)"/>
</g>
</g>
<defs>
<linearGradient id="paint0_linear" x1="53.845" y1="24.9559" x2="39.3601" y2="46.8875" gradientUnits="userSpaceOnUse">
<stop stop-color="#41873F"/>
<stop offset="0.3288" stop-color="#418B3D"/>
<stop offset="0.6352" stop-color="#419637"/>
<stop offset="0.9319" stop-color="#3FA92D"/>
<stop offset="1" stop-color="#3FAE2A"/>
</linearGradient>
<linearGradient id="paint1_linear" x1="46.8306" y1="37.5209" x2="81.8321" y2="19.1966" gradientUnits="userSpaceOnUse">
<stop offset="0.1376" stop-color="#41873F"/>
<stop offset="0.4032" stop-color="#54A044"/>
<stop offset="0.7136" stop-color="#66B848"/>
<stop offset="0.9081" stop-color="#6CC04A"/>
</linearGradient>
<linearGradient id="paint2_linear" x1="34.229" y1="35.7575" x2="63.2527" y2="35.7575" gradientUnits="userSpaceOnUse">
<stop offset="0.09192" stop-color="#6CC04A"/>
<stop offset="0.2864" stop-color="#66B848"/>
<stop offset="0.5968" stop-color="#54A044"/>
<stop offset="0.8624" stop-color="#41873F"/>
</linearGradient>
<linearGradient id="paint3_linear" x1="34.2293" y1="48.2424" x2="63.2527" y2="48.2424" gradientUnits="userSpaceOnUse">
<stop offset="0.09192" stop-color="#6CC04A"/>
<stop offset="0.2864" stop-color="#66B848"/>
<stop offset="0.5968" stop-color="#54A044"/>
<stop offset="0.8624" stop-color="#41873F"/>
</linearGradient>
<linearGradient id="paint4_linear" x1="67.4811" y1="24.2438" x2="59.5837" y2="64.1196" gradientUnits="userSpaceOnUse">
<stop stop-color="#41873F"/>
<stop offset="0.3288" stop-color="#418B3D"/>
<stop offset="0.6352" stop-color="#419637"/>
<stop offset="0.9319" stop-color="#3FA92D"/>
<stop offset="1" stop-color="#3FAE2A"/>
</linearGradient>
<clipPath id="clip0">
<rect width="132" height="84" fill="white"/>
</clipPath>
</defs>
</svg>
