<?xml version="1.0" encoding="UTF-8"?>
<svg viewBox="0 0 640 480" xmlns="http://www.w3.org/2000/svg">
 <path d="m140.92 193.9c32.112 0 58.142-30.422 58.142-67.947 0-37.531-26.03-67.958-58.142-67.958-32.108 0-58.139 30.427-58.139 67.958 0 37.525 26.031 67.947 58.139 67.947z"/>
 <path d="m140.92 125.95"/>
 <path d="m266.46 106.68h232.4c34.095 0 54.179 25.648 54.179 59.985v98.316h-286.58v-158.3z"/>
 <path d="m203.2 141.86v58.966h-89.352c-43.137 0.1808-43.207 64.988 0 64.988h117.14c17.106 0 27.816-16.137 27.816-34.391v-89.564c0-49.064-55.604-49.064-55.604 0z"/>
 <path d="m71.677 50.024c0-53.509-63.519-53.509-63.519 0v429.08h64.929v-110.81h494.02v109.98h63.517v-331.41c0-56.47-64.222-56.47-64.222 0v132.28h-494.73v-229.12h3.8e-5z"/>
</svg>
