<?xml version="1.0" encoding="UTF-8"?>
<svg viewBox="0 0 625 510" xmlns="http://www.w3.org/2000/svg">
 <defs>
  <filter id="e">
   <feGaussianBlur stdDeviation="11.168796"/>
  </filter>
  <linearGradient id="g" x1=".82586" x2=".24534" y1=".41216" y2=".44932">
   <stop stop-color="#fff" offset="0"/>
   <stop stop-opacity="0" offset="1"/>
  </linearGradient>
  <linearGradient id="f" x1="1.2822" x2="-.016174" y1=".33622" y2=".5">
   <stop stop-color="#fff" offset="0"/>
   <stop stop-opacity="0" offset="1"/>
  </linearGradient>
  <linearGradient id="h" x1=".14547" x2="1.3543" y1=".847" y2=".125">
   <stop stop-color="#130505" offset="0"/>
   <stop stop-color="#999" stop-opacity="0" offset="1"/>
  </linearGradient>
 </defs>
 <g fill-rule="evenodd">
  <g stroke="#000">
   <path d="m24.814 317.93l167.88 180.62 350.81-150.51-182.93-125.04-335.76 94.939z" filter="url(#e)" opacity=".733"/>
   <g stroke-width=".75">
    <path d="m458.95 60.909l-22.383 12.039-323.07 73.449" fill="url(#h)"/>
    <path d="m114.27 147.25l85.218 342.17 345.58-163.97-77.731-234.17-353.06 55.967z"/>
    <path d="m114.11 147.1l-11.307 5.8823 84.937 336.83 12.636-0.4526"/>
    <path d="m112.92 146.32l345.4-85.599-9.9221-25.516-348.13 74.176 12.651 36.939z"/>
    <path d="m100.16 109.45l-10.427 7.1603 12.308 35.256 10.877-5.6553-12.759-36.761z"/>
   </g>
  </g>
  <g fill="#fff">
   <g transform="matrix(.7491 -.03682 .03682 .7491 -43.559 -88.053)">
    <path d="m177.61 272.11l72.27 38.772 35.834-6.8682-71.194-37.958-36.909 6.0549z" stroke-width=".946"/>
    <path d="m254.38 259.5l70.365 36.289 38.691-7.1706-72.078-34.969-36.978 5.8512z" stroke-width=".929"/>
    <path d="m333.98 246.46l71.493 34.082 37.468-6.8635-74.462-32.86-34.499 5.6412z" stroke-width=".897"/>
    <path d="m411.13 234.02l71.339 31.424 39.958-6.8598-76.249-29.793-35.048 5.2297z" stroke-width=".837"/>
    <path d="m495.35 220.95l65.527 29.363 34.442-6.3558-67.36-28.846-32.609 5.8387z" stroke-width=".799"/>
    <path d="m568.83 208.77l59.628 28.586 30.203-5.5509-60.282-28.072-29.55 5.0375z" stroke-width=".76"/>
   </g>
   <path d="m124.52 185.52l34.23-45.587 24.212-3.5544-33.201 43.798-25.24 5.3435z" stroke-width=".946"/>
   <path d="m177.99 173.93l35.444-42.188 26.533-4.153-37.24 41.841-24.738 4.5003z" stroke-width=".929"/>
   <path d="m233.44 161.79l44.015-40.868 28.518-4.7317-43.303 39.673-29.231 5.9275z" stroke-width=".897"/>
   <path d="m291.47 149.32l42.933-37.662 29.895-5.1428-44.627 37.074-28.201 5.7306z" stroke-width=".837"/>
   <path d="m358.2 135.55l38.35-33.573 25.862-4.2864-39.774 33.692-24.439 4.1679z" stroke-width=".799"/>
   <path d="m405.58 126l38.739-31.509 22.604-3.7437-35.271 30.236-26.072 5.0163z" stroke-width=".76"/>
  </g>
  <g stroke="#000" stroke-width=".75">
   <path d="m114.11 147.1l-11.307 5.8823 84.937 336.83 12.636-0.4526" fill="url(#g)"/>
   <path d="m100.16 109.45l-10.427 7.1603 12.308 35.256 10.877-5.6553-12.759-36.761z" fill="url(#f)"/>
  </g>
 </g>
</svg>
