<?xml version="1.0" encoding="UTF-8"?>
<svg version="1.1" viewBox="0 0 1201.2 1295.2" xmlns="http://www.w3.org/2000/svg" xmlns:xlink="http://www.w3.org/1999/xlink">
 <defs>
  <linearGradient id="n">
   <stop stop-color="#eeeeec" offset="0"/>
   <stop stop-color="#eeeeec" stop-opacity="0" offset="1"/>
  </linearGradient>
  <linearGradient id="o">
   <stop stop-color="#cdcdcc" offset="0"/>
   <stop stop-color="#cdcdcc" stop-opacity="0" offset="1"/>
  </linearGradient>
  <linearGradient id="p" x1="275.16" x2="277.64" y1="2704.1" y2="2281.4" gradientTransform="matrix(2.4858 0 0 .40228 -190.82 187.85)" gradientUnits="userSpaceOnUse">
   <stop stop-color="#2e3436" offset="0"/>
   <stop stop-color="#2e3436" stop-opacity="0" offset="1"/>
  </linearGradient>
  <linearGradient id="q" x1="284.57" x2="285.83" y1="770.15" y2="1052.5" gradientTransform="matrix(2.4691 0 0 .40501 -190.82 187.85)" gradientUnits="userSpaceOnUse">
   <stop stop-color="#2e3436" offset="0"/>
   <stop stop-color="#2e3436" stop-opacity="0" offset="1"/>
  </linearGradient>
  <linearGradient id="r" x1="2418.8" x2="2235.1" y1="283.36" y2="281.96" gradientTransform="matrix(.45402 0 0 2.2026 -190.82 187.85)" gradientUnits="userSpaceOnUse">
   <stop stop-color="#2e3436" offset="0"/>
   <stop stop-color="#2e3436" stop-opacity="0" offset="1"/>
  </linearGradient>
  <linearGradient id="s" x1="459.74" x2="755.84" y1="293.18" y2="294.59" gradientTransform="matrix(.45402 0 0 2.2026 -190.82 187.85)" gradientUnits="userSpaceOnUse">
   <stop stop-color="#2e3436" offset="0"/>
   <stop stop-color="#2e3436" stop-opacity="0" offset="1"/>
  </linearGradient>
  <linearGradient id="t" x1="1357.6" x2="1442.1" y1="689.51" y2="810.55" gradientTransform="matrix(.88881 0 0 1.1251 -190.82 187.85)" gradientUnits="userSpaceOnUse">
   <stop stop-color="#cececc" offset="0"/>
   <stop stop-color="#cececc" stop-opacity="0" offset="1"/>
  </linearGradient>
  <linearGradient id="u" x1="959.98" x2="975.11" y1="516.91" y2="601.67" gradientTransform="matrix(1.27 0 0 .78738 -190.82 187.85)" gradientUnits="userSpaceOnUse" xlink:href="#o"/>
  <linearGradient id="v" x1="900.74" x2="911.17" y1="-231.66" y2="-190.77" gradientTransform="matrix(1.2796 0 0 .78147 -190.82 187.85)" gradientUnits="userSpaceOnUse" xlink:href="#n"/>
  <linearGradient id="w" x1="302.57" x2="313" y1="-77.009" y2="-36.112" gradientTransform="matrix(1.2796 0 0 .78147 -190.82 187.85)" gradientUnits="userSpaceOnUse" xlink:href="#n"/>
  <linearGradient id="x" x1="389.15" x2="397.84" y1="374.87" y2="604.92" gradientTransform="matrix(2.1784 0 0 .45904 -190.82 187.85)" gradientUnits="userSpaceOnUse">
   <stop stop-color="#eeeeec" offset="0"/>
   <stop stop-color="#eeeeec" stop-opacity="0" offset="1"/>
  </linearGradient>
  <linearGradient id="y" x1="457.9" x2="476.18" y1="576.87" y2="1082.2" gradientTransform="matrix(1.3954 0 0 .71663 -190.82 187.85)" gradientUnits="userSpaceOnUse">
   <stop stop-color="#eeeeec" offset="0"/>
   <stop stop-color="#eeeeec" stop-opacity="0" offset="1"/>
  </linearGradient>
  <linearGradient id="z" x1="959.98" x2="975.11" y1="730.3" y2="815.06" gradientTransform="matrix(1.27 0 0 .78738 -190.82 187.85)" gradientUnits="userSpaceOnUse" xlink:href="#o"/>
 </defs>
thomp
 <rect y="468.25" width="1201.2" height="788.31" rx="20.182" ry="20.182" stroke-linejoin="bevel" stroke-width="2"/>
 <rect x="83.68" y="548.6" width="789.32" height="615.14" rx="20.458" ry="20.458" fill="#8d8d8d" stroke-linejoin="bevel" stroke-width="2"/>
 <rect x="950.58" y="943.21" width="194.6" height="234.18" rx="8.2241" ry="8.2241" fill="#8d8d8d" stroke-linejoin="bevel" stroke-width="2"/>
 <path d="m966.28 0.00198c-16.093 0-29.183 13.09-29.183 29.183 0 4.2527 0.8098 8.1922 2.449 11.836l-292.64 309.17c-6.1792-0.29767-12.472-0.61218-18.775-0.61218-33.07-6e-5 -64.446 4.2913-93.059 11.836l-305.71-203.67c0.61572-2.3578 1.0203-4.7969 1.0203-7.3468 0-16.093-13.09-29.183-29.183-29.183s-29.183 13.09-29.183 29.183 13.09 29.183 29.183 29.183c6.4068 0 12.33-2.2068 17.142-5.7141l292.44 194.89c-56.056 19.721-97.884 53.091-113.47 92.854h461.62c-21.827-55.697-95.1-98.787-186.93-109.38l281.22-297.13c3.9216 1.964 8.3788 3.0611 13.061 3.0611 16.093 0 28.979-12.886 28.979-28.979s-12.886-29.183-28.979-29.183z" stroke-linejoin="bevel" stroke-width="2"/>
 <path d="m145.8 553.86h13.086c31.499 0 56.857 25.358 56.857 56.857v501.38c0 31.499-25.358 56.857-56.857 56.857h-13.086c-31.499 0-56.857-25.358-56.857-56.857v-501.38c0-31.499 25.358-56.857 56.857-56.857z" fill="url(#s)" stroke-linejoin="bevel" stroke-width="2"/>
 <path d="m813.48 550.77h-13.086c-31.499 0-56.857 25.358-56.857 56.858v501.47c0 31.499 25.358 56.857 56.857 56.857h13.086c31.499 0 56.857-25.358 56.857-56.857v-501.47c0-31.499-25.358-56.858-56.857-56.858z" fill="url(#r)" stroke-linejoin="bevel" stroke-width="2"/>
 <path d="m870.38 607.6v13.086c0 31.499-25.358 56.857-56.857 56.857h-659.29c-31.499 0-56.857-25.358-56.857-56.857v-13.086c0-31.499 25.358-56.857 56.857-56.857h659.29c31.499 0 56.857 25.358 56.857 56.857z" fill="url(#q)" stroke-linejoin="bevel" stroke-width="2"/>
 <path d="m873.38 1112.2v-13.086c0-31.499-25.358-56.857-56.858-56.857h-669.81c-31.499 0-56.857 25.358-56.857 56.857v13.086c0 31.499 25.358 56.857 56.857 56.857h669.81c31.499 0 56.858-25.358 56.858-56.857z" fill="url(#p)" stroke-linejoin="bevel" stroke-width="2"/>
 <rect transform="rotate(42.282)" x="1311.4" y="-141.25" width="22.857" height="91.428" rx="11.428" ry="11.428" stroke-linejoin="bevel" stroke-width="3"/>
 <path d="m950.88 956.08h192.82" fill="none" stroke="#000" stroke-width="2.35"/>
 <path d="m950.88 1165h192.82" fill="none" stroke="#000" stroke-width="2.35"/>
 <path d="m950.88 973.49h192.82" fill="none" stroke="#000" stroke-width="2.35"/>
 <path d="m950.88 990.9h192.82" fill="none" stroke="#000" stroke-width="2.35"/>
 <path d="m950.88 1008.3h192.82" fill="none" stroke="#000" stroke-width="2.35"/>
 <path d="m950.88 1025.7h192.82" fill="none" stroke="#000" stroke-width="2.35"/>
 <path d="m950.88 1078h192.82" fill="none" stroke="#000" stroke-width="2.35"/>
 <path d="m950.88 1112.8h192.82" fill="none" stroke="#000" stroke-width="2.35"/>
 <path d="m950.88 1130.2h192.82" fill="none" stroke="#000" stroke-width="2.35"/>
 <path d="m950.88 1043.1h192.82" fill="none" stroke="#000" stroke-width="2.35"/>
 <path d="m950.88 1147.6h192.82" fill="none" stroke="#000" stroke-width="2.35"/>
 <path d="m950.88 1060.6h192.82" fill="none" stroke="#000" stroke-width="2.35"/>
 <path d="m950.88 1095.4h192.82" fill="none" stroke="#000" stroke-width="2.35"/>
 <path d="m1046 1213h-7.0234v-4.9002h-3.5935v18.171c0 3.8793 2.1233 6.3295 5.7986 6.3295h4.8184v-3.4303h-4.3285c-1.8374 0-2.695-0.6124-2.695-2.45v-10.29h7.0234v-3.43m1.7961 9.8004c0 6.0435 4.7368 10.209 10.168 10.209 5.4309 0 10.168-4.1652 10.168-10.209 0-6.0436-4.7369-10.209-10.168-10.209-5.431 0-10.168 4.1652-10.168 10.209m3.7567 0c0-4.0017 2.6952-6.7786 6.4111-6.7786s6.4109 2.7769 6.4109 6.7786-2.695 6.7783-6.4109 6.7783-6.4111-2.7766-6.4111-6.7783m23.506 9.8003v-8.9021h4.0834c1.8784 0 3.1849 1.1027 3.1849 3.5527v5.3494h3.5936v-5.7578c0-3.471-1.5925-5.1859-4.4918-5.7574v-0.082c1.1025-0.2858 2.2867-2.2457 3.0626-3.5934l2.5725-4.4102h-4.0834l-3.3894 5.7987c-0.5308 0.8983-1.5109 1.47-3.0216 1.47h-1.5109v-16.252h-3.5936v28.584h3.5936m13.572-9.8003c0 6.0435 4.7368 10.209 10.168 10.209 5.431 0 10.168-4.1652 10.168-10.209 0-6.0436-4.7367-10.209-10.168-10.209-5.431 0-10.168 4.1652-10.168 10.209m3.7568 0c0-4.0017 2.695-6.7786 6.411-6.7786 3.7159 0 6.411 2.7769 6.411 6.7786s-2.6951 6.7783-6.411 6.7783c-3.7161 0-6.411-2.7766-6.411-6.7783m23.22 9.8003v-11.434c0-3.0218 2.2051-5.1453 4.7776-5.1453s4.7778 2.1234 4.7778 5.1453v11.434h3.5934v-11.434c0-5.1453-3.5934-8.5754-8.3712-8.5754-4.7776 0-8.3712 3.4302-8.3712 8.5754v11.434h3.5936" fill="#eeeeec"/>
 <path d="m1035.6 549.99v23.363h2.953v-9.3798c0-2.4681 1.7739-4.1689 3.9082-4.1689 2.1011 0 3.9082 0.90039 3.9082 4.1689v9.3798h2.9531v-9.3798c-2e-4 -5.4028-2.9858-6.9481-6.6876-6.9481-1.7009 0-3.1814 0.73645-4.0819 1.7369v-8.7718h-2.953zm22.581 0c-3.3019 0-5.6454 2.1838-5.6454 5.819v17.544h2.953v-13.201h4.7766v-2.866h-4.7766v-1.5634c0-2.0342 1.1921-2.9528 3.1265-2.9528h2.0845v-2.7793h-2.5186zm-39.256 7.2954 5.5587 14.765c0.5332 1.434 1.2241 1.6501 2.2581 1.6501 1.0338 0 1.7244-0.21606 2.2581-1.6501l5.6451-14.765h-3.2135l-4.6897 12.42-4.6033-12.42h-3.2135z" fill="#eeeeec"/>
 <path d="m1036.8 725.16-0.8684 2.8661h4.2556v20.41h3.2135v-23.276h-6.6007z" fill="#eeeeec"/>
 <path d="m969.88 754.75-5.7322 8.0771c-1.6676 2.3679-3.0397 4.1938-3.0397 7.2954 0 4.7023 3.7352 8.3376 8.3375 8.3376 4.9359 0 8.5983-4.0021 8.5983-8.3376 0-4.7024-2.7341-8.2911-7.9034-8.4244l-1.8239 2.6924c3.7352-0.0669 6.5138 1.8836 6.5138 5.8189 0 2.9347-2.4298 5.2978-5.2978 5.2978-2.8016 0-5.2111-2.3562-5.2111-5.1242 0-2.2346 0.8372-3.5707 2.1711-5.4716l7.2087-10.161h-3.8214z" fill="#eeeeec"/>
 <path d="m965.08 854v11.898h5.8188c3.702 0 5.1244 1.5745 5.1244 4.3425 0 2.4012-1.4412 4.1688-4.3426 4.1688h-7.6428v2.866h8.5114c4.2356 0 6.948-3.4461 6.948-6.9479 0-4.8692-3.3886-7.3823-8.4246-7.3823h-2.779v-6.0796h8.9456v-2.866h-12.159z" fill="#eeeeec"/>
 <path d="m1033.8 889.37v2.8661h9.9878l-7.2955 6.7743v2.3449h3.6478c3.5017 0 5.4714 1.6939 5.4714 3.9951 0 2.4348-1.6216 4.4293-4.6899 4.4293h-7.7296v2.8661h8.5981c3.9356 0 6.948-2.9132 6.948-7.3823 1e-4 -4.2022-3.1334-6.7945-7.469-6.8611l3.1266-2.6924c1.5007-1.334 2.7792-2.1538 2.7792-3.8214 1e-4 -1.7009-1.0992-2.5187-3.3003-2.5187h-10.075z" fill="#eeeeec"/>
 <path d="m1116.7 855.53c-0.033 0-0.1271 0.11401-0.2605 0.34741l-2.9528 4.9504v10.075h-7.035l8.4246-14.938h-3.4739l-7.4694 13.549c-0.5666 1.0339-1.042 1.6648-1.042 2.4318 0 1.2006 0.8573 1.9106 2.2581 1.9106h8.3376v5.3848h3.2133v-5.3848h3.4741v-2.9528h-3.4741v-14.938c0-0.36694 0.033-0.43426 0-0.43426z" fill="#eeeeec"/>
 <path d="m1113 752.35c-4.3356 0-8.2507 2.8668-8.2507 7.4692 0 3.3685 1.6953 5.7808 4.8635 6.9479l2.6925-2.1712c-2.2681-0.2334-4.3425-1.9413-4.3425-4.3425 0-2.9348 1.6884-4.9505 4.6898-4.9505 2.6014 0 4.603 1.7947 4.603 4.4294 0 1.9677-1.2512 3.6025-2.5186 4.603l-8.2507 6.4269c-1.4676 1.1674-2.0845 1.6321-2.0845 2.8661 0 1.5341 1.0924 2.4318 3.1267 2.4318h12.854v-2.866h-11.725v-0.0869l6.5137-5.1241c3.1681-2.3345 5.298-4.4155 5.298-8.2508 0-4.1354-3.3339-7.3823-7.4692-7.3823z" fill="#eeeeec"/>
 <path d="m969.58 587.51v23.363h2.9528v-23.363h-2.9528zm12.593 0c-3.3019 0-5.6453 2.1838-5.6453 5.8189v17.544h2.9529v-13.201h4.7767v-2.866h-4.7767v-1.5633c0-2.0343 1.1923-2.9529 3.1265-2.9529h2.0846v-2.7792h-2.5187zm-37.259 7.2954v10.943c-2e-4 3.0017 2.4638 5.4716 5.7319 5.4716 1.801 0 3.6228-0.724 4.6899-2.2581 1.0674 1.5341 2.8022 2.2581 4.6032 2.2581 3.2682 0 5.7321-2.4699 5.7321-5.4716v-10.943h-2.8661v10.248c-1e-4 2.0343-1.1317 3.3004-2.866 3.3004-1.901 0-3.2135-0.99988-3.2135-3.7346v-9.8142h-2.8661v9.8142c-2e-4 2.7347-1.2256 3.7346-3.1266 3.7346-1.7341 0-2.8661-1.266-2.8661-3.3004v-10.248h-2.9528z" fill="#eeeeec"/>
 <path d="m1113.9 584.73v23.362h2.9529v-9.3798c0-2.468 1.7737-4.1688 3.9082-4.1688 2.1011 0 3.9083 0.90033 3.9083 4.1688v9.3798h2.953v-9.3798c0-5.4026-2.9857-6.9481-6.6876-6.9481-1.701 0-3.1814 0.73663-4.0819 1.7371v-8.7718h-2.9529zm22.581 0c-3.3016 0-5.6453 2.1837-5.6453 5.8188v17.544h2.953v-13.201h4.7766v-2.866h-4.7766v-1.5634c0-2.0344 1.1921-2.9529 3.1266-2.9529h2.0844v-2.7791h-2.5187zm-39.256 7.2954v9.3797c0 4.2022 2.9592 7.0348 6.8611 7.0348 3.902 0 6.8611-2.8326 6.8611-7.0348v-9.3797h-2.9529v9.3797c0 2.468-1.8071 4.1688-3.9082 4.1688s-3.9082-1.7009-3.9082-4.1688v-9.3797h-2.9529z" fill="#eeeeec"/>
 <path d="m94.99 1243.3h57.257l-3.8171 49.146h-49.623l-3.8172-49.146z" stroke-linejoin="bevel" stroke-width="3"/>
 <path d="m1037.2 1246.1h57.257l-3.8171 49.146h-49.623l-3.8171-49.146z" stroke-linejoin="bevel" stroke-width="3"/>
 <path d="m163.65 570.83h620.02c28.908 0 52.179 23.272 52.179 52.18v266.33c0 28.907-23.272 52.18-52.179 52.18 0 0 14.13-183.73-317.66-89.269-164.04 46.701-302.36 89.269-302.36 89.269-27.724 8.1854-52.179-23.272-52.179-52.18v-266.33c0-28.908 23.272-52.18 52.179-52.18z" fill="url(#y)" opacity=".729" stroke-linejoin="bevel" stroke-width="2"/>
 <path d="m615.23 359.93c-77.68 0-146.81 31.591-191.24 80.597 0 0 126.99-3.9304 206.96-25.548 50.495-19.652 175.52 25.548 175.52 25.548-44.43-49.006-113.56-80.597-191.24-80.597z" fill="url(#x)" opacity=".729" stroke-linejoin="bevel" stroke-width="2"/>
 <path d="m225.34 150.09c0 13.56-10.608-11.633-24.863-4.3374-13.907 2.0845-24.267 17.897-24.267 4.3374s11.005-24.565 24.565-24.565 24.565 11.005 24.565 24.565z" fill="url(#w)" opacity=".729" stroke-linejoin="bevel" stroke-width="2"/>
 <path d="m990.78 29.232c0 13.56-10.608-11.633-24.863-4.3374-13.907 2.0844-24.267 17.897-24.267 4.3374s11.005-24.565 24.565-24.565 24.565 11.005 24.565 24.565z" fill="url(#v)" opacity=".729" stroke-linejoin="bevel" stroke-width="2"/>
 <path d="m1102.6 817.68a62.67 62.67 0 1 1 -125.34 0 62.67 62.67 0 1 1 125.34 0z" fill="#8d8d8d" stroke-linejoin="bevel" stroke-width="2"/>
 <path d="m1093.8 816.7c0 29.712-7.248-28.017-54.67-10.314-28.451 10.621-52.981 40.026-52.981 10.314s24.114-53.825 53.825-53.825c29.712 0 53.826 24.114 53.826 53.825z" fill="url(#z)" stroke-linejoin="bevel" stroke-width="2"/>
 <rect transform="rotate(19.937)" x="1244.6" y="372.08" width="22.856" height="91.426" rx="11.428" ry="11.428" stroke-linejoin="bevel" stroke-width="3"/>
 <path d="m1102.6 649.66a62.67 62.67 0 1 1 -125.34 0 62.67 62.67 0 1 1 125.34 0z" fill="#8d8d8d" stroke-linejoin="bevel" stroke-width="2"/>
 <path d="m1093.8 648.68c0 29.712-7.2473-28.017-54.669-10.314-28.452 10.621-52.982 40.026-52.982 10.314s24.114-53.825 53.826-53.825 53.825 24.114 53.825 53.825z" fill="url(#u)" stroke-linejoin="bevel" stroke-width="2"/>
 <rect x="1027" y="607.37" width="22.856" height="91.426" rx="4.1121" ry="4.1121" stroke-linejoin="bevel" stroke-width="3"/>
 <rect x="957.48" y="948.56" width="186.27" height="235.79" rx="8.2804" ry="8.2804" fill="url(#t)" opacity=".729" stroke-linejoin="bevel" stroke-width="2"/>
</svg>
