<?xml version="1.0" encoding="UTF-8"?>
<svg viewBox="0 0 262.204725 372.04725" xmlns="http://www.w3.org/2000/svg">
 <path d="m140.18 165.37c-3.8603 15.108-5.1084 30.676-5.5282 46.253-1.0794 19.693-1.3022 39.423-7.2217 58.314-0.50226 1.7293-1.247 3.3683-1.8704 5.0525l-9.4746 1.1266c0.64485-1.6733 1.5252-3.2547 1.9346-5.0199 5.9865-18.774 6.4882-38.397 7.3741-58.019 0.3186-15.724 1.7695-31.285 5.178-46.639l9.6082-1.0682z"/>
 <path d="m137.93 184.93c7.0792 27.206 14.997 53.858 30.368 77.586 5.8637 9.5371 13.623 17.569 21.557 25.346l-9.1294 2.233c-7.8376-7.9237-15.542-16.05-21.419-25.606-15.245-23.852-22.948-50.605-30.844-77.606l9.468-1.9532z"/>
 <path d="m120.51 124.8c0.93389 14.464 7.7671 27.748 12.151 41.443 0.93899 5.002 3.0006 9.6508 4.5778 14.424l-9.3235 1.8697c-1.5212-4.8287-3.429-9.5561-4.4668-14.55-4.5293-13.762-11.199-27.132-12.52-41.669l9.5818-1.5176z"/>
 <path d="m126.38 126.58c14.632-0.60209 29.076 1.6394 43.637 2.6035 9.6444 10.361-7.9745 18.258-18.634 27.638-3.2502 2.9435-6.0364 6.3436-8.9546 9.602l-9.455 0.82445c2.9278-3.2948 5.7467-6.7067 8.9804-9.7151 9.5466-8.5484 27.596-16.86 19.109-25.487-14.642-1.0283-29.187-3.2307-43.909-2.4679l9.2264-2.9978z"/>
 <path d="m163.86 135.15c18.475 2.5703 33.857 13.915 48.762 24.36-1.2088 17.828-30.846 22.392-47.28 28.711-2.3167 1.1033-4.5917 2.2903-6.8876 3.4354l-9.4209 0.43934c2.3095-1.1689 4.6365-2.3032 6.9284-3.5068 16.503-6.3727 43.465-10.967 47.484-26.808-14.871-10.39-30.233-21.766-48.786-23.642l9.2004-2.9894z"/>
 <path d="m139.33 89.575c5.7078-9.4081-3.6958 9.7972-4.6506 20.013 7.47 17.966 17.575 11.379 18.519 11.367 8.7658-8.9999 6.573-21.833 5.63-33.53-3.0726-2.7422-5.7956-5.9383-9.2252-8.2184l-9.5555 0.61822c13.695-3.9295 20.262-6.3378 28.164 5.9207 0.95622 12.059 3.047 25.091-5.4907 34.696-16.061 4.9394-31.21 10.094-37.431-9.399 1.462-16.796 4.1008-23.806 23.267-24.465l-9.2264 2.9978z"/>
 <path d="m115.1 130.91c-5.5509 3.1346-11.348 5.7664-16.875 8.9343-7.7614 4.9748-17.422 7.0644-9.525 16.024 6.6322 6.5973 14.336 11.899 21.575 17.785 1.9472 2.0055 4.003 3.8928 6.0145 5.8292l-4.6207 1.1387c-1.9972-1.9378-4.0219-3.8463-5.9936-5.8109-7.2041-5.9426-14.937-11.219-21.554-17.845-8.0816-9.3258 1.1755-11.768 9.3748-16.872 5.4543-3.1771 11.216-5.8827 16.774-8.804l4.83-0.38013z"/>
 <path d="m149.62 190.18c4.3986 0.73521 7.5572 3.2668 10.908 6.0377l-4.6203 1.1327c-3.3492-2.6833-6.4684-5.1859-10.901-5.6714l4.6132-1.4989z"/>
 <path d="m116.68 180.73c-0.80804 3.995-2.1842 7.8922-3.357 11.805l-4.7258 0.60485c1.1672-3.8543 2.5278-7.7111 3.2918-11.651l4.7909-0.75881z"/>
</svg>
