<?xml version="1.0" encoding="UTF-8"?>
<svg viewBox="0 0 60 60" xmlns="http://www.w3.org/2000/svg">
 <path d="m28.18154,25.21157c0-.49899.12475-.96159.37424-1.38781 .25989-.43661.60294-.78486 1.02916-1.04475s.88882-.38983 1.38781-.38983c.48859,0 .946.12994 1.37221.38983s.76407.60814 1.01357,1.04475c.25989.42622.38983.88882.38983,1.38781 0,.50938-.12995.98238-.38983,1.41899-.24949.42622-.59255.76407-1.02916,1.01357-.42622.24949-.87842.37424-1.35662.37424-.48859,0-.95119-.12475-1.38781-.37424-.42622-.24949-.76927-.58735-1.02916-1.01357-.24949-.43661-.37424-.90961-.37424-1.41899zm-6.42446,2.60409-1.37221-1.20068c-1.62171.9356-3.52409,1.4034-5.70716,1.4034-1.66329,0-3.18624-.28068-4.56885-.84204s-2.5677-1.36702-3.55528-2.41697c-.97718-1.04995-1.73086-2.31821-2.26104-3.80478-.53017-1.49696-.79526-3.14465-.79526-4.94309s.26509-3.44093.79526-4.9275c.54057-1.49696 1.29944-2.76522 2.27663-3.80477s2.15708-1.84001 3.53969-2.40137 2.90556-.84204 4.56885-.84204 3.18624.28068 4.56885.84204c1.393.56136 2.5729,1.36182 3.53969,2.40137 .97718,1.03956 1.73086,2.30781 2.26103,3.80477 .54057,1.48656.81086,3.12906.81086,4.9275 0,2.95234-.68091,5.43168-2.04273,7.43802l1.23187,1.09154c.65492.54057 1.09673.99797 1.32543,1.37221 .2287.36384.34305.75368.34305,1.1695 0,.63413-.20791,1.1643-.62373,1.59052-.41582.43661-.92001.65492-1.51255.65492-.30147,0-.58215-.04158-.84204-.12475-.24949-.08317-.51978-.2287-.81086-.43661s-.68091-.52497-1.1695-.95119zm-7.07937-18.9615c-1.25786,0-2.31301.33266-3.16545.99797s-1.47617,1.54894-1.8712,2.65087c-.39503,1.09153-.59255,2.26104-.59255,3.5085 0,1.25786.19751,2.43776.59255,3.53969s1.01876,1.98555 1.8712,2.65087 1.90759.99797 3.16545.99797c.58215,0 1.10193-.07796 1.55933-.2339l-.06237-.03119c-.66532-.59255-1.10713-1.06555-1.32543-1.41899s-.32746-.73289-.32746-1.13831c0-.64453.20271-1.1747.60814-1.59052 .41582-.42622.9252-.63933 1.52815-.63933 .44701,0 .85763.09876 1.23187.29627 .38464.19752.90961.59774 1.57493,1.20069l.15593.12475c.44701-1.12272.67051-2.37538.67051-3.75799 0-1.28905-.19752-2.47414-.59255-3.55528s-1.01877-1.94917-1.8712-2.60409c-.84204-.66532-1.89199-.99797-3.14985-.99797z" fill="#333"/>
 <path d="m28.18154,54.14753c0-.49899.12475-.96159.37424-1.38781 .25989-.43661.60294-.78486 1.02916-1.04476s.88882-.38983 1.38781-.38983c.48859,0 .946.12994 1.37221.38983s.76407.60814 1.01357,1.04476c.25989.42622.38983.88882.38983,1.38781 0,.50938-.12994.98238-.38983,1.41899-.24949.42622-.59255.76407-1.02916,1.01357-.42622.24949-.87842.37424-1.35662.37424-.48859,0-.95119-.12475-1.38781-.37424-.42622-.24949-.76927-.58735-1.02916-1.01357-.24949-.43661-.37424-.90961-.37424-1.41899zm-21.03541-2.88477 4.98987-13.5662c.44701-1.19549.81605-2.07911 1.10713-2.65086 .29108-.58215.6913-1.07074 1.20069-1.46578 .50938-.40543 1.1747-.60814 1.99595-.60814 .84204,0 1.52295.20271 2.04273.60814 .53017.40543.946.91481 1.24747,1.52815 .31187.60294.67571,1.46577 1.09153,2.58849l4.97427,13.5662c.31187.82125.51458,1.45538.60814,1.90239 .10396.43661.15593.87842.15593,1.32543 0,.64453-.2287,1.1643-.6861,1.55933-.44701.38464-1.04476.57695-1.79324.57695-.51978,0-.95639-.10396-1.30984-.31187s-.63933-.49899-.85764-.87323c-.20791-.37424-.39503-.83164-.56136-1.37221l-.62373-2.04273h-8.49837l-.63933,2.04273c-.27028.84204-.59774,1.48137-.98238,1.91798-.37424.42622-.95119.63933-1.73086.63933-.73808,0-1.34103-.19232-1.80883-.57695-.45741-.39503-.68611-.91481-.68611-1.55933 0-.38464.04158-.78487.12475-1.20069 .09356-.42622.30667-1.10193.63933-2.02713zm12.03806-4.08546-2.58849-8.40481h-.06237l-2.77562,8.40481h5.42648z" fill="#333"/>
 <path d="m39.228 9.0008h15.295" fill="none" stroke="#7f7f7f" stroke-linecap="round" stroke-linejoin="round" stroke-width="3.125"/>
 <path d="m39.228 16.501h15.295" fill="none" stroke="#7f7f7f" stroke-linecap="round" stroke-linejoin="round" stroke-width="3.125"/>
 <path d="m39.228 24.001h15.295" fill="none" stroke="#7f7f7f" stroke-linecap="round" stroke-linejoin="round" stroke-width="3.125"/>
 <path d="m39.228 37.55h15.295" fill="none" stroke="#7f7f7f" stroke-linecap="round" stroke-linejoin="round" stroke-width="3.125"/>
 <path d="m39.228 45.05h15.295" fill="none" stroke="#7f7f7f" stroke-linecap="round" stroke-linejoin="round" stroke-width="3.125"/>
 <path d="m39.228 52.55h15.295" fill="none" stroke="#7f7f7f" stroke-linecap="round" stroke-linejoin="round" stroke-width="3.125"/>
</svg>
