<svg width="23" height="24" fill="none" xmlns="http://www.w3.org/2000/svg">
  <mask id="a" fill="#fff">
    <path d="M22.722 10.538L12.043.228a.801.801 0 00-1.118 0L.246 10.537a.805.805 0 00.56 1.384h1.418v11.273c0 .445.36.805.805.805h5.637c.444 0 .805-.36.805-.805v-6.442h4.026v6.442c0 .445.36.805.805.805h5.636c.445 0 .806-.36.806-.805V11.922h1.419a.805.805 0 00.56-1.384zm-1.979.58a.805.805 0 00-.805.804v11.273h-5.636v-6.442a.805.805 0 00-.805-.805H9.47a.805.805 0 00-.805.805v6.442H3.029V11.922a.805.805 0 00-.805-.805H.806L11.483.807l10.683 10.31h-1.423z"/>
  </mask>
  <path d="M22.722 10.538L12.043.228a.801.801 0 00-1.118 0L.246 10.537a.805.805 0 00.56 1.384h1.418v11.273c0 .445.36.805.805.805h5.637c.444 0 .805-.36.805-.805v-6.442h4.026v6.442c0 .445.36.805.805.805h5.636c.445 0 .806-.36.806-.805V11.922h1.419a.805.805 0 00.56-1.384zm-1.979.58a.805.805 0 00-.805.804v11.273h-5.636v-6.442a.805.805 0 00-.805-.805H9.47a.805.805 0 00-.805.805v6.442H3.029V11.922a.805.805 0 00-.805-.805H.806L11.483.807l10.683 10.31h-1.423z" fill="#6B3FFC"/>
  <path d="M22.722 10.538l.695-.719-.695.72zM12.043.228l-.698.716.003.003.695-.72zm-1.118 0l.694.719.004-.003-.698-.717zM.246 10.537l.694.72-.694-.72zm1.978 1.384h1v-1h-1v1zm7.247 4.831v-1h-1v1h1zm4.026 0h1v-1h-1v1zm7.247-4.83v-1h-1v1h1zm1.997-.246l.72.695-.72-.695zm-2.803 11.518v1h1v-1h-1zm-5.636 0h-1v1h1v-1zm-5.636 0v1h1v-1h-1zm-5.637 0h-1v1h1v-1zM.805 11.117l-.694-.72-1.781 1.72H.805v-1zM11.484.807l.694-.72-.694-.67-.695.67.695.72zm10.683 10.31v1h2.476l-1.782-1.72-.694.72zm1.25-1.298L12.737-.492 11.349.947l10.68 10.31 1.389-1.438zM12.74-.49a1.801 1.801 0 00-2.514 0L11.623.944a.199.199 0 01-.278 0L12.741-.49zm-2.51-.003L-.45 9.818l1.39 1.44L11.619.946 10.23-.492zM-.45 9.818c-.352.34-.551.81-.551 1.3h2a.195.195 0 01-.06.14l-1.388-1.44zm-.551 1.3c0 .996.808 1.804 1.805 1.804v-2c.108 0 .195.087.195.195h-2zm1.805 1.804h1.42v-2H.804v2zm.42-1v11.273h2V11.922h-2zm0 11.273c0 .997.808 1.805 1.804 1.805v-2c.108 0 .195.087.195.195h-2zM3.028 25h5.637v-2H3.029v2zm5.637 0c.997 0 1.805-.808 1.805-1.805h-2c0-.108.087-.195.195-.195v2zm1.805-1.805v-6.442h-2v6.442h2zm-1-5.442h4.026v-2H9.47v2zm3.026-1v6.442h2v-6.442h-2zm0 6.442c0 .997.808 1.805 1.805 1.805v-2c.108 0 .195.087.195.195h-2zM14.302 25h5.636v-2h-5.636v2zm5.636 0c.997 0 1.806-.808 1.806-1.805h-2c0-.108.087-.195.194-.195v2zm1.806-1.805V11.922h-2v11.273h2zm-1-10.273h1.419v-2h-1.42v2zm1.419 0c.489 0 .957-.198 1.297-.55l-1.438-1.39a.195.195 0 01.14-.06v2zm1.298-.55a1.805 1.805 0 00-.044-2.553l-1.39 1.438a.195.195 0 01-.005-.275l1.439 1.39zm-2.717-2.255c-.997 0-1.806.808-1.806 1.805h2a.195.195 0 01-.194.195v-2zm-1.806 1.805v11.273h2V11.922h-2zm1 10.273h-5.636v2h5.636v-2zm-4.636 1v-6.442h-2v6.442h2zm0-6.442c0-.997-.808-1.805-1.805-1.805v2a.195.195 0 01-.195-.195h2zm-1.805-1.805H9.47v2h4.026v-2zm-4.026 0c-.997 0-1.805.808-1.805 1.805h2a.195.195 0 01-.195.195v-2zm-1.805 1.805v6.442h2v-6.442h-2zm1 5.442H3.029v2h5.637v-2zm-4.637 1V11.922h-2v11.273h2zm0-11.273c0-.997-.808-1.805-1.805-1.805v2a.195.195 0 01-.195-.195h2zm-2.53-.086l10.68-10.31-1.39-1.439L.111 10.397l1.389 1.44zm9.29-10.31l10.683 10.31 1.39-1.438L12.177.088 10.79 1.525zm-8.565 8.591H1.206v2h1.018v-2zm-1.018 0h-.4v2h.4v-2zm20.96 0h-.711v2h.712v-2zm-.711 0h-.711v2h.711v-2z" fill="#6B3FFC" mask="url(#a)"/>
  <rect x=".272" y="11.207" width="15.266" height=".5" rx=".25" transform="rotate(-44.883 .272 11.207)" fill="#C4C4C4" stroke="#6B3FFC" stroke-width=".5"/>
  <rect x="11.762" width="15.344" height="1.075" rx=".537" transform="rotate(45.177 11.762 0)" fill="#6B3FFC"/>
</svg>
