<?xml version="1.0" encoding="UTF-8" standalone="no"?>

<svg viewBox="0 0 210 297" version="1.1" id="svg827">
  <title id="title1464">HomeOffice</title>
  <defs id="defs821" />
  <g id="layer1">
      <path
       style="fill:none;stroke:#050000;stroke-width:8;stroke-linecap:butt;stroke-linejoin:miter;stroke-miterlimit:4;stroke-dasharray:none;stroke-opacity:1"
       d="M 27.514671,119.97803 V 224.38155 H 186.98909 V 120.10458"
       id="path1383"
       />
      <path
       style="fill:none;stroke:#050000;stroke-width:8;stroke-linecap:butt;stroke-linejoin:miter;stroke-miterlimit:4;stroke-dasharray:none;stroke-opacity:1"
       d="M 6.8494276,138.79245 107.27595,43.225615 205.36387,138.80944"
       id="path1385"
      />
      <path
       style="fill:#000000;fill-opacity:1;stroke:#050000;stroke-width:3.99540234;stroke-linecap:butt;stroke-linejoin:miter;stroke-miterlimit:4;stroke-dasharray:none;stroke-opacity:1"
       d="m 569.27148,440.41406 c -1.42813,0.0113 -3.29129,0.17846 -5.75781,0.53321 l -46.96875,135.1289 14.56836,5.01953 18.21289,-52.97656 0.47461,69.12695 -20.0957,10.44727 0.0664,3.69922 h 58.47266 l 0.33984,-4.7832 -23.5371,-9.5293 -0.38282,-86.43164 h -9.77734 l 22.04687,-64.68555 c -3.46182,-2.77497 -1.47358,-5.60061 -7.66211,-5.54883 z m -302.28906,18.7793 c -13.56182,-6.8e-4 -24.55645,12.38329 -24.55664,27.66211 2.1e-4,15.27881 10.99483,27.66474 24.55664,27.66406 13.56099,-6.4e-4 24.55253,-12.38619 24.55274,-27.66406 -1.9e-4,-15.27791 -10.99174,-27.66147 -24.55274,-27.66211 z m 5.91797,60.87695 c -16.28687,-0.11187 -25.57824,8.76592 -25.42578,11.76758 2.48907,49.00993 11.95309,84.94271 19.66797,131.24219 0.97189,5.83279 5.95092,9.38183 11.36914,9.8418 12.94236,1.0987 27.44272,1.84317 54.58984,-1.53516 3.56247,-0.4433 7.03765,-0.97635 10.29883,-1.65039 -0.0704,0.85323 -0.0187,1.70212 0.19727,2.52734 l 23.84375,91.05078 c 0.76069,2.90468 3.22018,4.88683 6.48242,5.66602 0.54713,3.00351 2.06585,5.23539 3.73437,5.23437 h 0.80274 l -0.0469,0.002 0.28906,11.80468 186.44141,0.3711 V 769.4766 l -32.11133,-0.46484 1.3418,-128.90234 h 54.82812 v -22.76954 c -1.15029,-0.3719 -261.68945,-1.02148 -261.68945,-1.02148 l 0.19336,16.91406 154.71289,7.25 -1.05469,127.97266 -67.48437,3.77734 c 0.56655,-1.22831 0.85871,-2.93099 0.74219,-4.82226 -0.23169,-3.75803 -1.98395,-6.78239 -3.92969,-6.78125 l -18.22461,0.01 c 1.01435,-1.98977 1.36117,-4.09854 0.84375,-6.07422 l -23.8457,-91.04883 c -0.79819,-3.04777 -3.47062,-5.07581 -6.97461,-5.76757 0.40057,-1.79093 0.34526,-3.81265 -0.27735,-6.11328 -1.77301,-6.55129 -10.42627,-11.25615 -18.40429,-11.52344 l -28.375,-0.1875 c 0,0 1.06861,-15.48677 -0.0957,-23.10547 -2.17699,-14.24402 -12.74609,-41.39258 -12.74609,-41.39258 l 41.2168,29.74024 66.14257,0.55664 c 3.88468,-4.64406 7.10744,-10.0197 12.65235,-12.82422 l 11.31055,1.11328 c 2.34478,0.35263 3.73234,-3.33935 2.10937,-3.71484 l -16.87109,-3.9043 c -3.64698,0.9064 -7.3794,1.54551 -10.16211,5.20508 -17.44596,0.13077 -34.89196,-3.96656 -52.33789,-5.94922 l -74,-64.4961 c -3.48023,-0.73186 -6.73782,-1.06132 -9.75391,-1.08203 z m -48.70703,23.87891 c -5.31766,0.0748 -10.24674,2.0195 -9.88086,6.13476 l 4.06641,45.73829 h -3.93164 l 12.06445,102.91211 8.67773,-0.13282 5.42188,6.44141 11.79297,0.13086 26.4375,8.54492 -0.50391,15.12305 3.61914,0.12109 -0.13281,13.28125 -0.17774,-0.006 -46.36132,21.42188 c 0.20817,3.47036 0.0578,7.12675 5.96289,7.62304 l 40.46289,-17.80664 -0.16016,15.83594 c 3.58022,2.7405 6.67982,1.93878 9.625,0 l 0.26172,-15.78711 0.37695,0.0156 c 1.3556,0.39428 39.82422,17.55664 39.82422,17.55664 5.96582,-1.06734 7.49652,-2.33723 7.07813,-7.56836 l -46.22461,-20.89649 -0.87305,-0.0312 0.23438,-14.0332 2.71093,-0.13086 v -14.52539 l 25.34961,-8.86914 13.15039,-0.39453 c 2.54916,-0.21355 3.69912,-2.02786 4.87891,-3.81055 v -19.7168 c -1.11558,-1.86523 -2.4955,-3.42046 -4.87891,-3.81054 l -90.96289,-0.16016 c -2.77733,0.23735 -4.28059,2.63301 -6.09961,4.49609 l -3.11718,-20.76562 c 11.20902,6.40917 29.02297,-2.29816 28.33203,-7.22852 -4.75273,-33.91468 -12.35819,-69.49255 -24.80664,-104.61914 -1.19189,-3.36329 -6.89915,-5.15874 -12.2168,-5.08398 z m 280.46484,47.46094 c -5.36356,0 -9.68164,0.53963 -9.68164,1.20898 v 18.49414 c 0,0.66932 4.31808,1.20899 9.68164,1.20899 5.36357,0 9.67969,-0.53967 9.67969,-1.20899 v -18.49414 c 0,-0.66935 -4.31612,-1.20898 -9.67969,-1.20898 z m -13.08593,2.97265 c -1.08862,0 -1.96485,0.53967 -1.96485,1.20899 v 11.33984 c 0,0.66928 0.87623,1.20898 1.96485,1.20898 1.08865,0 1.96484,-0.5397 1.96484,-1.20898 V 595.5918 c 0,-0.66932 -0.87619,-1.20899 -1.96484,-1.20899 z m -14.57813,7.48633 -56.54687,0.23047 c -1.97023,1.23912 -3.95475,3.48345 -5.66797,7.04883 l 57.6875,-4.9375 6.4082,0.54101 c 3.55699,-1.96762 6.28311,4.56445 5.59766,1.02149 z m 30.95313,42.79297 c 5.19375,0 9.375,0.69811 9.375,1.56445 v 111.87305 c 0,0.86635 -4.18125,1.5625 -9.375,1.5625 -5.19375,0 -9.375,-0.69615 -9.375,-1.5625 V 646.22656 c 0,-0.86634 4.18125,-1.56445 9.375,-1.56445 z m -221.8418,131.9707 c -4.4475,0 -8.05347,3.49657 -8.05274,7.8086 5.1e-4,4.31115 3.60612,7.80468 8.05274,7.80468 4.44662,0 8.05027,-3.49353 8.05078,-7.80468 7.4e-4,-4.31203 -3.60328,-7.8086 -8.05078,-7.8086 z m 52.14453,0 c -4.4475,0 -8.05347,3.49657 -8.05273,7.8086 5.1e-4,4.31115 3.60611,7.80468 8.05273,7.80468 4.44662,0 8.05222,-3.49353 8.05273,-7.80468 7.4e-4,-4.31203 -3.60523,-7.8086 -8.05273,-7.8086 z m -100.74414,0.1875 c -4.44662,0 -8.05222,3.49353 -8.05274,7.80469 -7.1e-4,4.31199 3.60525,7.80859 8.05274,7.80859 4.44749,0 8.05345,-3.4966 8.05273,-7.80859 -5.1e-4,-4.31116 -3.60611,-7.80469 -8.05273,-7.80469 z"
       transform="scale(0.26458333)"
       id="path1397"
      />
      <path
       style="fill:#000000;fill-opacity:1;stroke:#000000;stroke-width:0.29716644px;stroke-linecap:butt;stroke-linejoin:miter;stroke-opacity:1"
       d="m 60.597491,47.080172 13.231288,-0.09449 v 27.828496 l -13.41009,7.748512 z"
       id="path1460"
      />
  </g>
</svg>
