<?xml version='1.0' encoding='utf-8'?>
<svg xmlns="http://www.w3.org/2000/svg" version="1.1" id="Capa_1" x="0px" y="0px" viewBox="0 0 3000 3000" style="enable-background:new 0 0 3000 3000;"> <style type="text/css"> .st0{fill:#211915;} .st1{fill:#FFFFFF;} </style> <path d="M1005.7,1795l-95.6-95.6c21.4-15.7,35.4-41,35.4-69.5c0-47.5-38.5-86.1-86.1-86.1c-28.6,0-53.9,13.9-69.5,35.4l-77.1-77.1 c-21.7-21.7-57.2-21.7-78.9,0L481,1654.8c-21.7,21.7-21.7,57.2,0,78.9l293,293c21.7,21.7,57.2,21.7,78.9,0l152.7-152.7 C1027.4,1852.3,1027.4,1816.7,1005.7,1795z M859.4,1568.5c33.9,0,61.4,27.5,61.4,61.4c0,21.8-11.4,40.9-28.5,51.8l-84.7-84.7 C818.5,1579.8,837.6,1568.5,859.4,1568.5z"/> <polygon class="st0" points="2103.7,2445.4 1407.4,2445.4 2103.7,2411 "/> <polygon class="st0" points="2006,2249.6 1502.3,2268.6 2006,2214.8 "/> <polygon class="st0" points="622.4,1458.2 112.8,1477.2 622.4,1489.9 "/> <polygon class="st0" points="1556.5,690.6 1046.9,709.6 1556.5,722.2 "/> <polygon class="st0" points="546.4,1868.1 163.4,1868.1 546.4,1891.9 "/> <polygon class="st0" points="1456.2,897.1 1073.2,897.1 1456.2,920.9 "/> <polygon class="st0" points="457.8,1598.4 191.9,1598.4 448.3,1616.5 "/> <polygon class="st0" points="1179.8,1151.2 913.9,1151.2 1170.3,1169.4 "/> <path d="M2782.2,1198.7c-26.9-60.1-142.4-9.5-142.4-9.5l-19-61.7c-69.6-3.2-57,104.5-57,104.5l-327.1,70.4l-251.5-117 c-19.3-36.9-50.7-66.5-89-83.4c91.7-25.9,158.9-110.1,158.9-210.1c0-30.2-6.1-58.9-17.2-85.1c52.1-20.9,72.8-74.7,72.8-74.7 c-100.2,20-177-135.1-278.3-143.5c-101.3-8.4-139.2,84.9-139.2,84.9c-36.9-15.4-55.9,0-55.9,0c-35.9,33.2-83.9,141-70.2,234.3 c8.5,57.8,47.8,78.6,76.4,86.1c21,39.7,53.9,72.2,94,92.6c-45.1,0.6-86.4,17.7-118.1,45.4l-341.8,46l-317.7,238l11.3,17.9 c-91.4,50.3-158.3,137.3-113.1,185.2c45.2,47.9,137.6-37.9,137.6-37.9l38.2,52c66.8-19.9,19.5-117.4,19.5-117.4l256.9-180.9 l246.2-9.9v359.8c0,25.1,5.1,49,14.3,70.8l-132.3,164.6l-376.7,6.9l-43.9,375.8l139.3-148.6l411.1-17.9l211.7-268.1h2.5l321.2,143.7 l92,382.3l357.5,73.7l-142.8-165.3l-113.6-442.5l-294.6-138.5c2.5-12,3.8-24.4,3.8-37.1v-287.9l234.9,80.5l378.3-120.3l-4.7-20.6 C2717.3,1319,2809.1,1258.8,2782.2,1198.7z"/> <path class="st1" d="M1863.6,1272.4c10.6-8.2,17.5-21.6,17.5-36.8c0-25.1-18.9-45.4-42.2-45.4s-42.2,20.3-42.2,45.4 c0,16.2,7.9,30.3,19.7,38.4l-35.2,260.2l67.2,99.3l45.9-99.3L1863.6,1272.4z"/> </svg>