<?xml version="1.0" encoding="UTF-8"?>
<svg version="1.1" viewBox="0 0 1467.38 1920" xmlns="http://www.w3.org/2000/svg">
 <g transform="translate(-260.04 970.72)">
  <path d="m308.74 626.22c31.641-93.188 78.312-189.86 142.07-294.28 37.772-61.856 49.572-84.915 60.659-118.54 11.765-35.676 29.381-66.847 43.095-76.259 7.5832-5.2038 16.479-6.9948 42.714-8.6001 19.59-1.1986 36.479-0.75637 41.314 1.0817 4.4978 1.7101 11.966 2.1906 16.596 1.0679 19.401-4.7041 63.699-24.547 90.494-40.537 15.809-9.4333 36.413-20.544 45.787-24.689 16.551-7.3197 17.156-8.0342 20.882-24.686l3.8376-17.148-17.335-17.755c-41.072-42.068-64.168-92.173-72.544-157.38-1.1964-9.3131-5.1648-19.857-9.7523-25.911-4.2543-5.6145-9.8656-15.307-12.47-21.54-6.1837-14.8-16.82-57.156-16.871-67.18-0.023-4.3183-3.1738-13.769-7.0048-21.002-5.6156-10.603-6.3602-14.862-3.8428-21.984 2.5881-7.3218 4.9876-8.8667 14.023-9.0286 10.495-0.18818 10.862-0.5967 9.8702-10.992-0.5667-5.9382-1.1646-32.702-1.3288-59.476-0.251-40.916 1.0793-55.877 8.3406-93.816 4.7515-24.825 7.4438-46.333 5.9828-47.794-4.7947-4.7946-149.23-46.825-160.91-46.825-4.3388 0-6.5129 2.0219-6.5129 6.0568 1.5228 7.8855 4.6633 25.163 9.2687 48.903l4.6662 45.538c2.5664 25.046 8.1636 61.243 12.438 80.438 10.871 48.818 20.782 102.3 20.637 111.35-0.0676 4.1993 2.5564 20.354 5.8311 35.9s8.9927 45.224 12.707 65.952c18.476 103.11 17.906 98.928 13.469 98.928-2.7848 0-7.2049-18.549-13.084-54.905-4.1624-25.742-9.9563-45.593-13.307-45.593-1.3068 0-2.347 3.1798-2.3118 7.0663 0.12562 13.846 12.444 98.467 17.03 116.99 4.9381 19.942 6.0444 39.34 2.9104 51.034-2.5957 9.6859-5.2974 8.8707-10.409-3.1406l-4.3433-10.207-1.8412 12.562c-1.5234 10.394-3.1676 12.71-9.5254 13.42-4.2263 0.47169-9.9906 2.9449-12.81 5.496-8.3918 7.5945-37.174 6.1402-46.194-2.3341-4.082-3.8349-10.533-7.0147-14.335-7.0663-6.5406-0.0889-6.8663-1.2786-6.0452-22.078 0.4774-12.091 2.2288-31.877 3.8921-43.968 3.489-25.364 1.7286-150.17-3.1232-221.41-1.8233-26.773-4.1774-105.54-5.2313-175.03-1.3278-87.56-2.9987-127.22-5.442-129.17-6.1784-4.9312-37.299-12.288-61.24-14.476-27.874-2.5479-38.073-6.0328-38.073-13.01 0-9.8465 35.125-45.232 73.685-74.231 21.211-15.952 40.795-32.888 43.52-37.636 2.7253-4.7485 10.327-11.078 16.893-14.066 6.566-2.9877 31.724-21.881 55.906-41.985s55.981-45.165 70.663-55.691 46.102-33.114 69.823-50.196c23.72-17.082 54.812-38.433 69.093-47.447s29.816-19.378 34.524-23.032l8.5586-6.6422 43.261 13.506c186.38 58.191 319.1 101.42 427.98 139.42 113.89 39.741 149.32 53.178 191.37 72.578 23.434 10.812 49.999 22.088 59.033 25.058 9.0346 2.9699 19.588 7.9599 23.453 11.089 6.1708 4.9968 6.4869 6.3385 2.5976 11.025-7.5283 9.0711-47.89 27.755-65.246 30.203-18.936 2.6712-56.176 24.366-198.25 115.49l-85.97 55.143 1.9582 21.07c1.0769 11.588 4.8868 33.401 8.4663 48.472 6.5354 27.518 7.0662 62.494 1.2793 84.301-2.273 8.5664-1.9617 8.9775 5.1046 6.7388 19.164-6.0712 26.221-5.5329 33.845 2.582 10.051 10.699 12.993 44.773 5.4281 62.877-2.8059 6.7157-5.9392 20.138-6.9628 29.826-4.2548 40.276-41.723 94.407-68.87 99.5-5.858 1.099-11.885 3.6168-13.393 5.5953-1.5082 1.9784-7.2798 18.137-12.826 35.908l-10.084 32.311 17.17 35.211c9.4436 19.366 19.593 44.05 22.554 54.852 5.949 21.705 5.4324 21.156 59.508 63.266 31.598 24.606 40.25 33.294 69.092 69.386 8.6366 10.807 24.889 27.108 36.117 36.225 11.228 9.1165 32.426 27.392 47.109 40.611 22.527 20.284 27.921 23.724 34.546 22.038 28.876-7.3481 30.321-6.9084 53.29 16.214 11.775 11.853 29.342 28.404 39.039 36.779 34.248 29.58 58.107 84.575 117.51 270.85 13.82 43.34 26.705 89.271 28.633 102.07 14.679 87.045 14.656 173.8 14.656 262.74l1.9954 7.0663h-1467.4c0-136.86 21.837-244.2 48.693-323.06zm291-677.99c-1.2908-21.966-6.8088-30.188-6.7471-10.054 0.0467 15.293 2.6992 28.106 5.8194 28.112 1.094 2e-3 1.5115-8.1239 0.92765-18.058zm32.726 39.778c-4.4312-13.001-10.204-55.413-8.2586-60.672 3.128-8.4556 4.658-4.5539 11.281 28.765 4.3829 22.051 4.8991 29.954 2.137 32.716-2.7622 2.7622-4.0084 2.5667-5.159-0.80896z"/>
 </g>
</svg>
