<svg xmlns="http://www.w3.org/2000/svg" xmlns:xlink="http://www.w3.org/1999/xlink" viewBox="0 0 95.625 85" fill="#fff" fill-rule="evenodd" stroke="#000" stroke-linecap="round" stroke-linejoin="round"><use xlink:href="#AQ" x="2.813" y="2.5"/><symbol id="AQ" overflow="visible"><g stroke="none"><path d="M0 0h8.39v55.017h33.178v6.783H0V0zm67.728 14.922c-8.58-.113-17.161 5.276-19.83 13.453-3.813 9.421-2.059 21.253 5.415 28.45 7.246 5.954 18.152 6.406 26.313 2.186 5.606-2.939 9.152-8.78 9.915-14.922.992-6.406.496-13.415-2.669-19.218-3.737-6.18-11.059-10.174-18.305-9.91l-.839-.113zm.763 6.557c6.292 0 11.936 4.748 12.966 10.853 1.907 6.896.763 15.337-4.958 20.198-5.339 4.296-13.919 3.693-18.305-1.62-5.339-5.652-5.339-14.319-2.593-21.102 1.907-4.899 6.979-8.403 12.318-8.29h.687z" fill="#000"/><path d="M0 70.579h89.999V80H0v-9.421z" fill="#3492ff"/></g></symbol></svg>