<svg width="26" height="26" fill="none" xmlns="http://www.w3.org/2000/svg">
  <g clip-path="url(#codewars_logo_icon_145389_1__clip0)">
    <path d="M.826 13.216l-.089-.042a1.116 1.116 0 01-.453-.479 1.652 1.652 0 01-.22-.812l.021-.14c0-.216.056-.41.153-.596l.089-.161c.042-.088.105-.165.16-.237a.285.285 0 00.056-.263l-.055-.174a2.306 2.306 0 01-.106-.647l-.034-.13c0-.242.063-.48.216-.653l.11-.14a.607.607 0 01.325-.215c.106-.035.182-.144.195-.27l.022-.369c0-.292.14-.563.355-.762l.263-.195a.682.682 0 00.148-.195.267.267 0 00.055-.216c-.021-.106 0-.14.055-.153.174.067.284.046.36-.042l.14-.182.39-.436a.42.42 0 00.084-.452l-.127-.284c-.021-.063 0-.14.055-.16.14 0 .237.05.28.139l.042.076c.067.131.22.195.326.14a1.77 1.77 0 01.617-.106h.347a.485.485 0 00.479-.414c.042-.3.148-.542.3-.703.165-.186.347-.326.563-.435.284-.148.458-.368.512-.648.077-.347.259-.596.508-.757l.826-.466.237-.143c.14-.085.27-.195.38-.326l.217-.259a.733.733 0 01.347-.216c.106-.034.258-.055.39-.042l.43.03c.217 0 .39.055.564.13l.11.055c.109.043.215.021.27-.055l.097-.055.466-.487a.424.424 0 01.381-.13c.14.02.28.076.41.143.195.106.356.148.542.148h.11c.237 0 .474.034.715.089l.16.042a.417.417 0 00.432-.153.1.1 0 01.153-.021c.034.021.042.042.055.076.021.216.153.381.326.432l.174.055a.866.866 0 01.453.326c.11.16.24.326.389.431l.11.11c.109.11.258.153.41.14h.638c.263 0 .512.046.762.152.238.11.487.131.711.043a1.76 1.76 0 01.74-.073l.466.073c.216.025.431.13.563.296l.055.051c.106.11.216.25.322.403.068.14.22.216.368.216h.673c.165 0 .326.034.457.11.14.105.259.216.369.325l.105.14c.13.153.195.356.186.575 0 .174.131.322.3.322l.221.025c.153 0 .28.106.356.246l.11.22.279.626c.046.11.055.216.046.305 0 .106.03.195.106.237l.11.077c.14.11.216.27.195.457l-.077.508-.02.216c-.022.11.028.25.13.326.16.105.237.25.245.41v.216c0 .11-.02.241-.105.326a.523.523 0 00-.11.326l.034.25c0 .173.106.325.216.43.153.11.238.284.263.458.042.27.05.487.05.703v.25c0 .088 0 .173.035.258a.39.39 0 00.14.199l.216.16c.22.14.372.326.457.576.11.237.14.487.14.736v.085c0 .195-.021.402-.084.584a.786.786 0 00.029.542c.088.152.144.325.165.511.042.217.02.432-.056.606l-.02.076a.97.97 0 01-.25.347c-.11.11-.216.174-.28.25-.067.063-.11.173-.076.27l.03.153c.055.216.055.431 0 .626v.089c-.043.16-.106.3-.175.431a.797.797 0 01-.321.326l-.165.106a.291.291 0 00-.131.241.414.414 0 01-.106.28l-.165.22a.997.997 0 01-.398.322c-.152.11-.283.22-.38.325-.11.131-.196.284-.238.436a.363.363 0 01-.36.3h-.584c-.153 0-.292.11-.356.242a1.461 1.461 0 01-.25.398.915.915 0 00-.22.39c-.02.13-.126.22-.237.173a.271.271 0 00-.347.11 2.526 2.526 0 01-.398.52l-.076.064c-.144.11-.326.195-.491.195-.195 0-.292.088-.322.216-.034.11-.055.25-.067.372a1.851 1.851 0 01-.106.356l-.055.063c-.11.165-.195.326-.305.466l-.042.067a.99.99 0 01-.542.377 2.13 2.13 0 01-.715.11h-.153a.368.368 0 00-.291.174l-.064.11-.067.126-.14.242a.81.81 0 01-.487.389 2.358 2.358 0 01-.694.063l-.174-.02a.975.975 0 01-.43-.11.278.278 0 00-.327.11.744.744 0 01-.38.283l-.327.105a1.424 1.424 0 01-.681 0l-.174-.055a.618.618 0 01-.305-.106.584.584 0 00-.322-.067l-.143.025c-.216.021-.41 0-.606-.055l-.291-.067a.597.597 0 01-.326-.25.433.433 0 00-.326-.216h-.347c-.216-.03-.41-.106-.542-.27l-.431-.411-.153-.13-.237-.175-.14-.105a1.273 1.273 0 00-.567-.216l-.648-.11c-.067 0-.11-.021-.174-.034l-.25-.056a.493.493 0 01-.29-.216c-.064-.105-.187-.152-.292-.105-.217.084-.39.105-.564.14h-.152a1.598 1.598 0 01-.805-.14 1.429 1.429 0 01-.592-.479.876.876 0 00-.567-.368l-.3-.063a1.806 1.806 0 01-.631-.263 1.152 1.152 0 01-.41-.465 1.368 1.368 0 01-.153-.542v-.085a.53.53 0 00-.377-.465 1.585 1.585 0 01-.597-.326.772.772 0 01-.241-.563l.025-.479a.6.6 0 00-.186-.465.667.667 0 01-.216-.466l-.034-.389a5.899 5.899 0 00-.14-.847.548.548 0 01.237-.617l.077-.055a.269.269 0 00.088-.347l-.088-.106a.75.75 0 00-.326-.216c-.085-.025-.106-.11-.106-.165l.106-.13a.204.204 0 000-.26.521.521 0 01-.14-.304l-.02-.757c0-.153.02-.305.062-.453.047-.13 0-.283-.126-.347v.01zm10.723-1.43c.076-.077.063-.217 0-.271a.96.96 0 01-.25-.292l-.11-.174a1.473 1.473 0 00-.279-.368l-.02-.02a.878.878 0 01-.25-.327.341.341 0 010-.325l.063-.106a.797.797 0 00.11-.39v-.046a.614.614 0 00-.11-.321 1.29 1.29 0 01-.105-.305v-.063a.444.444 0 01.084-.381c.088-.14.153-.271.186-.432V7.94a.417.417 0 00-.046-.356.399.399 0 01-.042-.347l.076-.216a1.58 1.58 0 01.292-.52l.152-.162.11-.13.063-.064a.215.215 0 00.021-.262.503.503 0 01-.063-.326l.021-.153c.034-.216.11-.431.25-.605l.042-.042c.16-.217.368-.36.605-.436l.297-.106c.127-.042.216-.186.216-.325 0-.174.055-.326.152-.466l.051-.055c.11-.182.241-.368.326-.563l.076-.14a.224.224 0 00.034-.11c0-.182-.11-.347-.283-.356l-.474-.034c-.27-.02-.542 0-.804 0l-.918.11c-.144 0-.25.106-.263.258 0 .153-.11.284-.237.326l-.39.106-.109.034-.326.11a.904.904 0 00-.542.486l-.084.14a1.31 1.31 0 01-.521.575c-.216.14-.326.368-.347.627v.11a1.09 1.09 0 01-.216.584l-.055.088a.349.349 0 00-.056.368.85.85 0 01.077.41v.576a.36.36 0 01-.216.322.462.462 0 00-.292.325l-.055.217a.554.554 0 00.216.567.854.854 0 01.326.563v.195c.034.216.152.431.347.542.195.13.347.325.431.542l.055.174a.593.593 0 00.5.398h.063c.195 0 .368.11.479.283.106.174.28.292.474.326l.304.085c.186.055.36.152.5.291l.021.025a.28.28 0 00.381-.046l.076-.084-.014-.013zm1.235-.995c.105.063.216.03.258-.067l.034-.052c.077-.152.174-.304.28-.435l.22-.326c.03 0 .042-.021.051-.042l.263-.347c.11-.106.237-.182.389-.182a.35.35 0 00.326-.216.818.818 0 01.237-.415l.055-.063c.11-.11.216-.165.326-.216.14-.021.27-.046.402-.046h.322c.13 0 .241-.052.305-.161a.618.618 0 01.27-.238l.11-.046a2.07 2.07 0 01.563-.148l.216-.02c.13 0 .27 0 .402.071.106.077.25.068.356-.02l.076-.043c.161-.11.348-.195.543-.216h.02a2.64 2.64 0 01.631-.034h.106c.216.034.402.11.542.27l.034.043c.11.11.28.199.431.199h.186a.164.164 0 00.14-.077.218.218 0 01.14-.067h.11c.152 0 .291.042.43.088l.187.077c.174.051.356.105.542.127h.13c.085 0 .14-.052.14-.127 0-.11-.02-.22-.076-.305l-.076-.174a3.942 3.942 0 01-.216-.431l-.021-.055a.34.34 0 010-.326v-.055a.185.185 0 00-.11-.217h-.085a.89.89 0 01-.435-.291l-.106-.11c-.11-.106-.174-.27-.22-.431-.051-.14-.169-.25-.322-.25h-.457a.61.61 0 01-.402-.237l-.043-.055a1.418 1.418 0 01-.182-.368c-.055-.11-.174-.174-.283-.14l-.131.042a1.489 1.489 0 01-.648.085l-.174-.022a.84.84 0 01-.5-.182l-.109-.076a1.093 1.093 0 00-.27-.153c-.106-.042-.195-.02-.259.056l-.055.063a.736.736 0 01-.41.216l-.584.034a.426.426 0 00-.292.131.63.63 0 01-.297.148h-.02c-.106 0-.217.076-.323.153v.02a.551.551 0 01-.393.166l-.042.02c-.131 0-.258 0-.39.035h-.13a.469.469 0 00-.368.377l-.043.25c-.034.173-.11.325-.216.465-.11.13-.24.216-.402.216h-.182c-.11.025-.22.144-.199.27.025.187 0 .348-.03.513l-.041.182a.504.504 0 01-.297.346l-.063.035h-.021c-.064.042-.11.14-.056.216.068.11.089.216.077.326l-.034.346c0 .127-.052.25-.106.356a.334.334 0 00-.021.326l.106.237a.47.47 0 01.034.347.779.779 0 00-.043.326c0 .11.064.216.153.263l.04.041zm8.557 7.833c.11.106.27.148.402.064l.216-.14a.607.607 0 00.238-.326v-.021l.11-.326.063-.11.046-.105.042-.076a.33.33 0 01.216-.186l.043-.022c.088-.02.143-.105.143-.195a.47.47 0 01.106-.27l.089-.077.216-.28v-.02a.806.806 0 00.13-.297.54.54 0 00-.046-.321l-.02-.047a1.08 1.08 0 01-.077-.28l-.03-.304-.034-.326c0-.105.043-.216.11-.322a1.35 1.35 0 00.174-.304v-.043l.021-.02c.021-.11-.034-.22-.13-.22-.11-.052-.217-.14-.25-.271l-.034-.064a2.301 2.301 0 01-.085-.584l.021-.542v-.034a.329.329 0 00-.325-.326h-.022a.717.717 0 01-.541-.216l-.085-.11-.22-.245-.28-.326a2.507 2.507 0 00-.36-.414c-.105-.106-.27-.216-.431-.237l-.216-.035a1.115 1.115 0 01-.368-.148c-.089-.067-.216-.046-.305.043l-.14.152-.067.043c-.077.02-.148-.021-.182-.11a.554.554 0 01.021-.41v-.064c0-.076-.063-.13-.13-.11h-.175c-.195 0-.389-.02-.57-.105l-.11-.046a.81.81 0 00-.356-.085c-.11 0-.22.021-.326.085l-.042.034a.905.905 0 01-.436.14h-.356a.71.71 0 00-.435.144c-.14.084-.292.14-.453.168l-.292.047a.968.968 0 00-.393.182.918.918 0 01-.398.216l-.055.025a.774.774 0 00-.432.322l-.13.13a.291.291 0 000 .348c.063.11.194.14.325.11l.161-.068c.085-.03.186 0 .259.042a.354.354 0 00.262.076l.27-.029c.153 0 .305 0 .453.042.165.056.305.11.436.217.13.11.27.152.431.173.165.022.326.056.479.11l.105.021c.11.034.2.106.263.216a.673.673 0 01.105.326v.034c0 .127.11.216.22.216h.064c.174 0 .36.022.542.077l.076.03c.11.045.216.109.292.22.088.105.14.215.174.321l.034.153c.03.165.042.326.042.5v.055c0 .105.076.216.195.258.11.021.237.068.36.13l.051.022c.144.085.284.195.39.326l.055.076a.86.86 0 01.216.571v.077c0 .165-.03.326-.085.478-.042.131 0 .284.14.326l.076.055a.956.956 0 01.41.322.95.95 0 01.154.542v.326a.654.654 0 01-.106.27.23.23 0 000 .263l.063.106.018-.013zm-6.932-5.547h-.021c-.046 0-.068.055-.056.11l.043.215c.042.174.063.347.088.521a.657.657 0 00.238.432h.042c.165.13.262.325.27.52v.542a.377.377 0 00.068.305l.051.051a.75.75 0 01.165.436l.03.596c0 .14-.085.259-.217.28l-.105.02c-.077 0-.11.09-.11.166 0 .084.034.182.063.27v.021c.034.106.046.216.034.326l-.042.292a2.05 2.05 0 01-.216.605l-.076.131a.47.47 0 01-.22.216.375.375 0 00-.217.237l-.084.39a2.38 2.38 0 01-.284.651h-.021a1.52 1.52 0 01-.487.432l-.13.088-.326.161a.342.342 0 00-.195.262l-.052.356c-.034.216-.11.403-.262.542l-.14.165-.165.161-.16.174a.583.583 0 01-.542.186l-.39-.076-.36-.047h-.097a.153.153 0 00-.021.174c.076.131.195.22.326.22l.237.043c.11 0 .241.055.347.105.11.077.216.131.347.165h.02c.145.055.293.064.436.055l.161-.025c.186-.02.36 0 .508.068l.13.042c.056.021.14 0 .196-.055a.651.651 0 01.216-.14l.089-.021c.14-.042.28-.067.431-.067h.089c.126 0 .249.025.355.088l.043.021c.076.034.165 0 .22-.063a.604.604 0 01.182-.216l.27-.186.174-.11.089-.051a.694.694 0 01.39-.11l.388-.034a.39.39 0 00.326-.28c.042-.165.106-.325.216-.465.11-.144.216-.263.326-.368.14-.11.28-.165.431-.174h.089a.363.363 0 00.292-.368v-.728c.02-.106.063-.25.127-.356l.22-.326.084-.11c.068-.055.11-.126.186-.216l.106-.14c.067-.11.067-.249-.021-.346a.742.742 0 01-.182-.41v-.047a1.4 1.4 0 01.029-.542v-.051c.055-.144.13-.284.22-.415a.247.247 0 00-.034-.346l-.186-.161a.796.796 0 01-.258-.521l-.021-.216c0-.068 0-.14-.022-.216l-.02-.165a.626.626 0 00-.284-.432l-.077-.02a1.042 1.042 0 01-.304-.293c-.085-.11-.127-.262-.161-.414l-.034-.182c0-.067-.043-.11-.106-.14l-.52-.165a.618.618 0 01-.293-.182h-.02c-.068-.088-.174-.088-.242-.025l-.106.11c-.02.034-.046.042-.076.034-.067 0-.11-.055-.088-.11a.487.487 0 00-.183-.452l-.143-.11-.322-.216c-.089-.034-.22 0-.263.106l-.042.067c0 .021-.034.03-.042.042-.046 0-.11 0-.11-.055l-.034-.055c-.03-.064-.105-.106-.174-.127l-.024-.054zm-1.3 1.083l-.054-.056c-.056-.042-.11-.034-.165.022a1.5 1.5 0 00-.174.414v.021c-.03.14-.161.237-.292.216h-.127a.277.277 0 00-.27.28.884.884 0 01-.186.542l-.064.067a.92.92 0 01-.435.292l-.085.02a.291.291 0 00-.216.238c0 .11-.067.22-.153.305l-.11.084a.82.82 0 01-.52.242l-.542.055c-.174 0-.322.105-.432.27a.65.65 0 01-.431.292l-.241.021a1.568 1.568 0 01-.542-.02l-.106-.022-.296-.076a.227.227 0 00-.259.076l-.11.14a.63.63 0 01-.541.216l-.703-.085c-.11 0-.195-.055-.292-.11a1.239 1.239 0 01-.262-.215l-.27-.326a.184.184 0 00-.14-.021l-.153.063-.606.153c-.11.034-.25 0-.356-.064a.569.569 0 00-.372-.11h-.14a.244.244 0 00-.173.305l.042.216a.474.474 0 01-.03.347c-.054.11-.042.216.03.326l.067.085c.085.13.216.241.326.347.106.11.216.216.3.36l.166.291a.425.425 0 00.389.238c.16 0 .326.055.452.16l.326.305c.089.076.216.089.305.021l.055-.02c.064 0 .106.041.106.109v.055c0 .14.11.27.25.322l.486.11c.174.055.347.11.512.216h.084a.154.154 0 00.153-.174v-.377c0-.11.042-.22.13-.263l.056-.02c.051.02.106.063.085.109v.182c0 .14.042.27.14.368.11.11.249.13.367.088a.82.82 0 01.403-.055l.402.021c.195.021.377 0 .542-.076a1.63 1.63 0 00.508-.27l.063-.043.326-.291c.11-.11.25-.166.38-.166h.432a.507.507 0 00.436-.43l.042-.217c0-.144.063-.27.16-.381a.912.912 0 01.327-.216l.13-.056a.705.705 0 00.39-.43l.063-.263c.055-.216.165-.432.326-.572l.021-.025c.13-.105.153-.322.068-.473l-.035-.077a.45.45 0 01-.034-.41c.056-.153.11-.284.195-.415l.11-.152c.042-.085.042-.216-.021-.292a.496.496 0 01-.11-.3l-.021-.153v-.368c.021-.11 0-.25-.034-.36l-.042-.127-.005-.033zm-1.548-.826v-.03c0-.109-.067-.173-.153-.173h-.283a.737.737 0 01-.305 0h-.487c-.249 0-.486-.046-.724-.11l-.262-.063-.216-.068-.487-.16a.916.916 0 01-.575-.487l-.055-.11c-.077-.16-.238-.25-.398-.216-.186 0-.368 0-.542-.084l-.131-.056c-.25-.11-.432-.325-.432-.617l-.046-.292a.47.47 0 00-.258-.347 2.824 2.824 0 01-.436-.25l-.051-.033a1.167 1.167 0 01-.381-.508l-.021-.063a1.021 1.021 0 01-.021-.542l.02-.068c.043-.14.056-.28.056-.431a.515.515 0 00-.153-.36l-.152-.14a.787.787 0 01-.292-.575 2.537 2.537 0 01.021-.694v-.063a.218.218 0 00-.216-.217h-.034a.368.368 0 00-.326.217 1.22 1.22 0 01-.237.389l-.043.055-.325.326a.741.741 0 00-.195.431 1.722 1.722 0 01-.131.479l-.021.055a.774.774 0 01-.25.326.465.465 0 00-.182.343l-.02.5c0 .216-.035.435-.11.651l-.022.085a.281.281 0 00.131.36l.453.194.042.022c.034 0 .046.02.055.055.034.042 0 .106-.034.106l-.106.055c-.063.02-.11.088-.13.165l-.021.105v.021l-.11.61c-.021.084-.021.182-.021.28a.21.21 0 00.13.194l.238.11c.11.063.241.14.326.216l.11.089a.371.371 0 00.126.105l.046.043a.501.501 0 01.153.249l.106.487c0 .13.11.241.216.27l.174.056s.034 0 .055.02l.216.068c.174.055.326.153.458.28.13.11.258.249.368.402l.042.042c.088.11.216.165.347.13.13-.033.27-.041.41-.041h.165a.71.71 0 01.368.105c.106.068.25.11.377.165h.034c.131.055.27.03.381-.042a.61.61 0 01.39-.131l.507.03c.11 0 .216-.022.27-.106h.022l.186-.174.055-.056a.47.47 0 01.343-.16h.49c.128 0 .25-.11.301-.216a.413.413 0 01.292-.22l.22-.043c.085 0 .161-.076.195-.174a.506.506 0 01.161-.258l.174-.174a.602.602 0 00.186-.347l-.02.008z" fill="#3C1874"/>
  </g>
  <defs>
    <clipPath id="codewars_logo_icon_145389_1__clip0">
      <path fill="#fff" d="M0 0h26v26H0z"/>
    </clipPath>
  </defs>
</svg>
