<svg width="26" height="26" fill="none" xmlns="http://www.w3.org/2000/svg">
  <path d="M24.256 6.792a12.944 12.944 0 00-4.731-4.73C17.533.898 15.359.317 13 .317S8.466.899 6.475 2.06a12.942 12.942 0 00-4.731 4.731C.58 8.784 0 10.96 0 13.317c0 2.833.826 5.38 2.48 7.643 1.653 2.262 3.789 3.828 6.406 4.697.305.056.53.017.677-.119a.662.662 0 00.22-.507l-.008-.914c-.006-.576-.009-1.078-.009-1.506l-.389.067a4.96 4.96 0 01-.94.06 7.164 7.164 0 01-1.176-.12 2.63 2.63 0 01-1.134-.507 2.148 2.148 0 01-.745-1.04l-.169-.39a4.228 4.228 0 00-.533-.863c-.243-.316-.488-.53-.736-.643l-.119-.085a1.244 1.244 0 01-.22-.203.928.928 0 01-.152-.238c-.034-.079-.006-.143.085-.195.09-.05.253-.075.49-.075l.339.05c.226.046.505.18.838.407.333.225.606.519.82.88.26.462.573.815.94 1.058.367.242.736.363 1.109.363.372 0 .694-.028.965-.084.27-.056.524-.141.761-.254.102-.756.378-1.337.83-1.744a11.599 11.599 0 01-1.735-.304 6.91 6.91 0 01-1.591-.66 4.556 4.556 0 01-1.363-1.135c-.361-.451-.657-1.044-.889-1.777-.23-.734-.347-1.58-.347-2.539 0-1.366.446-2.528 1.338-3.487-.418-1.027-.378-2.178.118-3.453.327-.102.813-.025 1.456.228.643.254 1.114.472 1.413.652.3.18.54.333.72.457a12.02 12.02 0 013.25-.44c1.117 0 2.2.147 3.25.44l.643-.406c.44-.27.96-.519 1.557-.745.598-.225 1.056-.287 1.372-.186.507 1.275.553 2.426.135 3.453.891.96 1.337 2.122 1.337 3.487 0 .96-.116 1.808-.347 2.547-.231.74-.53 1.332-.896 1.778a4.733 4.733 0 01-1.372 1.125 6.92 6.92 0 01-1.591.66c-.514.136-1.092.238-1.735.306.587.507.88 1.309.88 2.403v3.571c0 .203.07.373.212.508.14.135.363.175.668.118 2.619-.868 4.754-2.434 6.407-4.697 1.653-2.262 2.48-4.81 2.48-7.642 0-2.358-.582-4.533-1.744-6.525z" fill="#3C1874"/>
</svg>
